<?xml version="1.0" encoding="UTF-8" standalone="no"?>
<!-- Created with Inkscape (http://www.inkscape.org/) -->
<svg width="41.251106mm" height="40.963982mm" viewBox="0 0 41.251106 40.963982" version="1.1" id="svg1" xmlns="http://www.w3.org/2000/svg" xmlns:svg="http://www.w3.org/2000/svg">
  <defs id="defs1"/>
  <g id="layer1" transform="translate(-56.994066,-89.740484)">
    <g id="layer1-3" style="display:inline" transform="matrix(0.26458333,0,0,0.26458333,-62.423794,63.666462)">
      <g id="g7316" transform="translate(-91.446457,-154.74701)" style="display:inline;stroke:#0000c1;stroke-opacity:1">
        <path style="fill:none;stroke:#0057c1;stroke-width:6;stroke-linecap:butt;stroke-linejoin:miter;stroke-miterlimit:4;stroke-dasharray:none;stroke-opacity:1" d="m 545.78956,256.29451 h 149.9097 V 405.119 H 624.4465 l -78.65694,-78.94441 z" id="path54"/>
        <path style="fill:#0057c1;fill-opacity:1;stroke:none;stroke-width:0.979637px;stroke-linecap:butt;stroke-linejoin:miter;stroke-opacity:1" d="m 632.8154,263.13617 1.85905,12.13698 c -13.12796,26.49057 -16.15754,44.48965 -18.69091,72.06042 -0.44961,5.88354 -1.23417,7.60986 -4.97966,2.74251 -6.82369,-8.86756 -13.38109,-30.37035 -7.50901,-48.43947 7.30421,-22.47596 29.32053,-38.50044 29.32053,-38.50044 z" id="path1002-3"/>
        <path style="fill:#0057c1;fill-opacity:1;stroke:none;stroke-width:1.06921px;stroke-linecap:butt;stroke-linejoin:miter;stroke-opacity:1" d="m 573.49596,315.07503 11.12624,2.60009 c 15.82398,29.46148 33.08095,45.45622 56.43336,62.23351 5.13102,3.84531 6.26817,5.589 -0.3006,6.29035 -11.96728,1.27776 -32.03359,-7.01434 -45.25664,-23.05886 -16.44798,-19.95758 -22.00236,-48.06509 -22.00236,-48.06509 z" id="path1002-3-5"/>
        <path style="fill:#0057c1;fill-opacity:1;stroke:none;stroke-width:0.817506px;stroke-linecap:butt;stroke-linejoin:miter;stroke-opacity:1" d="m 681.62224,316.30487 -3.38157,6.94281 c -23.29834,6.02432 -38.61509,16.89085 -56.59169,31.25098 -3.78539,3.12105 -5.26025,3.63067 -4.42618,-1.51366 1.51956,-9.37216 10.77825,-25.88212 24.90977,-32.67232 17.57804,-8.44624 39.48967,-4.00781 39.48967,-4.00781 z" id="path1002-3-7"/>
      </g>
    </g>
  </g>
</svg>