<?xml version="1.0" encoding="UTF-8"?>
<!DOCTYPE svg PUBLIC "-//W3C//DTD SVG 1.1//EN" "http://www.w3.org/Graphics/SVG/1.1/DTD/svg11.dtd">
<svg xmlns="http://www.w3.org/2000/svg" version="1.1" width="1143px" height="1245px" style="shape-rendering:geometricPrecision; text-rendering:geometricPrecision; image-rendering:optimizeQuality; fill-rule:evenodd; clip-rule:evenodd" xmlns:xlink="http://www.w3.org/1999/xlink">
<g><path style="opacity:1" fill="#fefefe" d="M -0.5,-0.5 C 380.5,-0.5 761.5,-0.5 1142.5,-0.5C 1142.5,414.5 1142.5,829.5 1142.5,1244.5C 761.5,1244.5 380.5,1244.5 -0.5,1244.5C -0.5,829.5 -0.5,414.5 -0.5,-0.5 Z"/></g>
<g><path style="opacity:1" fill="#1593c8" d="M 493.5,47.5 C 494.497,47.4701 495.164,47.9701 495.5,49C 496.84,56.2011 499.173,63.0344 502.5,69.5C 508.933,72.9381 515.599,75.7714 522.5,78C 514.501,78.8853 507.334,81.7186 501,86.5C 498.415,94.0899 496.082,101.757 494,109.5C 493.029,101.472 490.863,93.805 487.5,86.5C 485.507,84.5014 483.173,83.0014 480.5,82C 475.216,80.453 469.882,79.1196 464.5,78C 470.392,75.6932 476.392,73.6932 482.5,72C 484.333,70.8333 486.167,69.6667 488,68.5C 489.998,61.5079 491.831,54.5079 493.5,47.5 Z"/></g>
<g><path style="opacity:1" fill="#1e95c4" d="M 356.5,138.5 C 353.193,138.538 350.026,137.872 347,136.5C 345.333,137.5 343.667,138.5 342,139.5C 340.495,138.327 338.995,137.161 337.5,136C 339.527,136.498 341.527,136.331 343.5,135.5C 341.5,133.167 339.5,130.833 337.5,128.5C 336.675,127.614 335.675,127.281 334.5,127.5C 334.928,120.918 334.094,114.585 332,108.5C 331.329,109.252 330.496,109.586 329.5,109.5C 330.188,106.943 331.354,104.609 333,102.5C 334.202,112.236 336.869,121.57 341,130.5C 345.627,134.396 350.794,137.063 356.5,138.5 Z"/></g>
<g><path style="opacity:1" fill="#1093c9" d="M 356.5,138.5 C 360.693,138.953 364.693,140.119 368.5,142C 359.708,143.28 351.375,145.947 343.5,150C 342.333,151.167 341.167,152.333 340,153.5C 337.059,162.433 334.393,171.433 332,180.5C 330.307,171.725 327.974,163.058 325,154.5C 322.795,151.96 320.295,149.793 317.5,148C 310.266,145.691 302.932,143.691 295.5,142C 303.833,139 312.167,136 320.5,133C 322,131.5 323.5,130 325,128.5C 326.502,122.146 328.002,115.813 329.5,109.5C 330.496,109.586 331.329,109.252 332,108.5C 334.094,114.585 334.928,120.918 334.5,127.5C 335.675,127.281 336.675,127.614 337.5,128.5C 339.5,130.833 341.5,133.167 343.5,135.5C 341.527,136.331 339.527,136.498 337.5,136C 338.995,137.161 340.495,138.327 342,139.5C 343.667,138.5 345.333,137.5 347,136.5C 350.026,137.872 353.193,138.538 356.5,138.5 Z"/></g>
<g><path style="opacity:1" fill="#0e93ca" d="M 794.5,105.5 C 796.648,108.403 798.148,111.736 799,115.5C 800.48,125.856 802.146,136.189 804,146.5C 806.435,157.932 812.935,166.099 823.5,171C 831.985,173.764 840.652,175.764 849.5,177C 852.032,177.619 854.365,178.619 856.5,180C 852.777,182.243 848.777,183.91 844.5,185C 830.867,184.982 819.367,189.816 810,199.5C 807.449,203.935 805.449,208.601 804,213.5C 801.603,226.885 799.103,240.218 796.5,253.5C 793.481,240.941 790.981,228.275 789,215.5C 787.198,204.377 781.365,196.211 771.5,191C 760.634,187.8 749.634,185.133 738.5,183C 736.668,182.252 735.001,181.252 733.5,180C 744.793,176.909 756.126,173.909 767.5,171C 778.992,166.172 786.159,157.672 789,145.5C 791.454,132.242 793.288,118.909 794.5,105.5 Z"/></g>
<g><path style="opacity:1" fill="#0b92ca" d="M 142.5,575.5 C 141.834,583.326 141.5,591.326 141.5,599.5C 141.502,607.862 142.169,615.862 143.5,623.5C 146.184,648.904 152.018,673.571 161,697.5C 162.912,701.66 165.079,705.66 167.5,709.5C 167.081,710.672 166.415,711.672 165.5,712.5C 137.064,675.05 120.897,632.717 117,585.5C 114.593,548.352 118.926,512.019 130,476.5C 155.499,395.749 197.499,325.082 256,264.5C 360.529,158.575 487.196,97.2418 636,80.5C 637.833,80.8333 639.667,81.1667 641.5,81.5C 638.568,83.6544 635.234,85.1544 631.5,86C 604.167,93.3333 576.833,100.667 549.5,108C 485.62,127.478 426.954,156.811 373.5,196C 312.946,240.969 261.779,294.802 220,357.5C 183.994,413.854 159.328,474.854 146,540.5C 143.762,552.066 142.596,563.732 142.5,575.5 Z"/></g>
<g><path style="opacity:1" fill="#1993c8" d="M 590.5,168.5 C 592.467,174 594.3,179.667 596,185.5C 600.967,189.121 606.467,191.621 612.5,193C 606.492,193.922 600.992,196.089 596,199.5C 594.317,205.923 592.317,212.256 590,218.5C 589.294,212.344 587.961,206.344 586,200.5C 580.538,196.452 574.371,193.952 567.5,193C 573.516,191.218 579.349,189.052 585,186.5C 587.145,180.585 588.978,174.585 590.5,168.5 Z"/></g>
<g><path style="opacity:1" fill="#1393c9" d="M 433.5,238.5 C 435.993,247.485 438.826,256.485 442,265.5C 443.558,267.359 445.391,268.859 447.5,270C 454.845,272.335 462.178,274.669 469.5,277C 459.54,278.54 450.373,282.04 442,287.5C 441,289.5 440,291.5 439,293.5C 437.852,301.733 435.852,309.733 433,317.5C 431.14,310.683 429.806,303.683 429,296.5C 426.928,289.427 422.428,284.594 415.5,282C 409.275,280.027 402.942,278.527 396.5,277.5C 403.697,274.698 411.031,272.198 418.5,270C 420.754,268.623 422.92,267.123 425,265.5C 427.2,256.284 430.034,247.284 433.5,238.5 Z"/></g>
<g><path style="opacity:1" fill="#151616" d="M 555.5,1068.5 C 548.657,1072.24 541.324,1074.91 533.5,1076.5C 527.911,1063.07 524.411,1049.07 523,1034.5C 511.016,1029.18 503.35,1020.18 500,1007.5C 497.903,990.47 498.069,973.47 500.5,956.5C 399.81,944.749 317.643,899.749 254,821.5C 236.22,798.291 221.22,773.291 209,746.5C 205.343,737.736 205.843,729.236 210.5,721C 173.904,613.868 184.404,511.702 242,414.5C 250.101,401.967 258.934,389.967 268.5,378.5C 257.561,362.362 256.727,345.696 266,328.5C 281.989,308.402 301.489,304.235 324.5,316C 345.402,332.619 349.569,352.786 337,376.5C 324.162,392.297 307.829,397.631 288,392.5C 259.358,425.423 238.692,463.089 226,505.5C 206.408,574.789 208.408,643.456 232,711.5C 238.286,713.366 243.619,716.699 248,721.5C 292.596,817.891 366.429,879.058 469.5,905C 583.18,925.971 681.014,896.137 763,815.5C 790.076,786.382 811.41,753.382 827,716.5C 831.386,711.228 836.886,707.895 843.5,706.5C 878.776,593.745 860.943,490.412 790,396.5C 787.207,393.201 784.207,390.201 781,387.5C 759.822,394.469 742.489,389.136 729,371.5C 716.913,347.858 721.413,328.025 742.5,312C 764.079,300.705 782.913,304.205 799,322.5C 805.991,332.414 808.658,343.414 807,355.5C 805.347,361.791 803.347,367.791 801,373.5C 866.742,453.088 893.409,544.421 881,647.5C 877.615,670.207 872.115,692.374 864.5,714C 869.031,720.137 870.531,726.97 869,734.5C 837.83,809.671 787.33,868.171 717.5,910C 673.065,935.423 625.399,950.923 574.5,956.5C 575.624,973.468 575.791,990.468 575,1007.5C 573.088,1015.16 569.255,1021.66 563.5,1027C 557.937,1030.61 552.27,1033.94 546.5,1037C 548.339,1047.86 551.339,1058.36 555.5,1068.5 Z"/></g>
<g><path style="opacity:1" fill="#1693c9" d="M 882.5,284.5 C 884.44,289.92 885.94,295.586 887,301.5C 888.184,309.411 892.35,314.911 899.5,318C 905.957,319.624 912.29,321.624 918.5,324C 912.534,325.532 906.534,327.198 900.5,329C 895.164,330.409 891.331,333.576 889,338.5C 887.29,347.34 884.957,356.007 882,364.5C 880.397,357.638 879.063,350.638 878,343.5C 876.377,337.543 872.877,333.043 867.5,330C 860.817,328.163 854.15,326.33 847.5,324.5C 847.709,323.914 848.043,323.414 848.5,323C 857.685,321.052 866.185,317.552 874,312.5C 876.352,303.03 879.185,293.696 882.5,284.5 Z"/></g>
<g><path style="opacity:1" fill="#030a09" d="M 687.5,399.5 C 687.5,421.5 687.5,443.5 687.5,465.5C 698.833,465.5 710.167,465.5 721.5,465.5C 724.621,466.288 726.288,468.288 726.5,471.5C 726.5,473.167 726.5,474.833 726.5,476.5C 727.833,476.5 729.167,476.5 730.5,476.5C 732.371,476.859 733.871,477.859 735,479.5C 735.667,499.167 735.667,518.833 735,538.5C 733.72,542.564 730.886,544.231 726.5,543.5C 726.929,547.257 726.263,550.757 724.5,554C 713.437,559.2 702.437,564.367 691.5,569.5C 692.15,580.154 692.484,590.821 692.5,601.5C 703.591,604.963 713.424,610.629 722,618.5C 723.608,621.382 724.941,624.382 726,627.5C 726.333,651.5 726.667,675.5 727,699.5C 729.442,702.048 731.108,705.048 732,708.5C 732.667,720.5 732.667,732.5 732,744.5C 730.587,747.661 728.92,750.661 727,753.5C 726.667,768.167 726.333,782.833 726,797.5C 725.314,808.519 719.481,814.686 708.5,816C 688.167,816.667 667.833,816.667 647.5,816C 641.233,814.066 637.399,809.9 636,803.5C 634.977,791.52 634.477,779.52 634.5,767.5C 617.83,767.81 601.163,768.31 584.5,769C 578.377,772.804 572.043,776.137 565.5,779C 544.167,779.667 522.833,779.667 501.5,779C 495.01,776.502 489.01,773.168 483.5,769C 477.175,768.5 470.842,768.334 464.5,768.5C 454.347,767.506 444.014,767.172 433.5,767.5C 433.5,770.833 433.5,774.167 433.5,777.5C 433.598,787.999 432.431,798.332 430,808.5C 427.688,812.58 424.188,815.08 419.5,816C 399.167,816.667 378.833,816.667 358.5,816C 350.313,814.815 344.813,810.315 342,802.5C 340.791,785.531 340.125,768.531 340,751.5C 337.894,749.623 336.561,747.29 336,744.5C 335.333,731.5 335.333,718.5 336,705.5C 338.062,703.099 339.729,700.433 341,697.5C 341.333,673.833 341.667,650.167 342,626.5C 343.922,620.57 347.422,615.737 352.5,612C 359.707,607.897 367.041,604.063 374.5,600.5C 375.261,591.867 375.928,583.2 376.5,574.5C 376.674,572.307 376.007,570.473 374.5,569C 364.289,563.728 353.956,558.728 343.5,554C 342.695,552.887 342.028,551.721 341.5,550.5C 341.833,547.833 342.167,545.167 342.5,542.5C 340.167,542.5 337.833,542.5 335.5,542.5C 334.542,542.047 333.708,541.381 333,540.5C 332.333,520.167 332.333,499.833 333,479.5C 334.129,477.859 335.629,476.859 337.5,476.5C 338.833,476.5 340.167,476.5 341.5,476.5C 341.5,474.5 341.5,472.5 341.5,470.5C 342.203,468.284 343.536,466.451 345.5,465C 357.162,464.5 368.829,464.333 380.5,464.5C 380.333,441.831 380.5,419.164 381,396.5C 382.171,395.107 383.671,394.273 385.5,394C 484.5,393.333 583.5,393.333 682.5,394C 685.421,394.752 687.087,396.585 687.5,399.5 Z"/></g>
<g><path style="opacity:1" fill="#f9fafa" d="M 577.5,430.5 C 585.174,430.334 592.841,430.5 600.5,431C 601.416,431.374 602.25,431.874 603,432.5C 603.497,434.81 603.663,437.143 603.5,439.5C 593.833,439.5 584.167,439.5 574.5,439.5C 574.129,435.997 575.129,432.997 577.5,430.5 Z"/></g>
<g><path style="opacity:1" fill="#fafbfb" d="M 492.5,434.5 C 492.5,435.833 492.5,437.167 492.5,438.5C 482.773,439.139 473.44,438.472 464.5,436.5C 463.965,433.762 464.965,431.928 467.5,431C 475.167,430.333 482.833,430.333 490.5,431C 491.823,431.816 492.489,432.983 492.5,434.5 Z"/></g>
<g><path style="opacity:1" fill="#fafbfb" d="M 548.5,433.5 C 548.5,435.167 548.5,436.833 548.5,438.5C 538.5,438.5 528.5,438.5 518.5,438.5C 517.959,435.348 518.959,432.848 521.5,431C 529.833,430.333 538.167,430.333 546.5,431C 547.381,431.708 548.047,432.542 548.5,433.5 Z"/></g>
<g><path style="opacity:1" fill="#b8bdbb" d="M 492.5,434.5 C 493.451,435.919 493.784,437.585 493.5,439.5C 483.5,439.5 473.5,439.5 463.5,439.5C 463.263,438.209 463.596,437.209 464.5,436.5C 473.44,438.472 482.773,439.139 492.5,438.5C 492.5,437.167 492.5,435.833 492.5,434.5 Z"/></g>
<g><path style="opacity:1" fill="#afb4b3" d="M 548.5,433.5 C 549.461,435.265 549.795,437.265 549.5,439.5C 538.986,439.828 528.653,439.494 518.5,438.5C 528.5,438.5 538.5,438.5 548.5,438.5C 548.5,436.833 548.5,435.167 548.5,433.5 Z"/></g>
<g><path style="opacity:1" fill="#fafbfb" d="M 708.5,676.5 C 710.857,676.337 713.19,676.503 715.5,677C 716.38,678.356 716.714,679.856 716.5,681.5C 716.5,683.833 716.5,686.167 716.5,688.5C 692.5,688.5 668.5,688.5 644.5,688.5C 644.667,653.832 644.5,619.165 644,584.5C 641.96,579.124 638.127,575.957 632.5,575C 565.833,574.333 499.167,574.333 432.5,575C 427.572,576.927 424.406,580.427 423,585.5C 422.5,619.832 422.333,654.165 422.5,688.5C 398.833,688.5 375.167,688.5 351.5,688.5C 351.5,684.167 351.5,679.833 351.5,675.5C 364.323,676.527 377.156,677.527 390,678.5C 394.222,678.441 398.389,677.941 402.5,677C 404.939,676.226 406.773,674.726 408,672.5C 409.523,664.898 409.856,657.232 409,649.5C 407.907,641.078 403.074,636.911 394.5,637C 382.156,636.632 369.823,636.965 357.5,638C 355.376,639.122 353.543,640.622 352,642.5C 350.719,635.457 351.719,628.79 355,622.5C 363.728,615.553 373.561,610.887 384.5,608.5C 384.347,594.81 384.847,581.143 386,567.5C 389.671,533.462 393.671,499.462 398,465.5C 400.427,455.407 406.594,448.907 416.5,446C 494.493,444.185 572.493,444.185 650.5,446C 663.519,449.367 670.353,457.867 671,471.5C 674.42,501.862 678.087,532.196 682,562.5C 682.619,578.165 683.119,593.832 683.5,609.5C 695.341,611.165 705.508,616.165 714,624.5C 716.394,630.276 717.061,636.276 716,642.5C 714.457,640.622 712.624,639.122 710.5,638C 696.167,637.333 681.833,637.333 667.5,638C 663.333,639.5 660.5,642.333 659,646.5C 658.161,655.22 658.495,663.887 660,672.5C 663.104,676.467 667.27,678.467 672.5,678.5C 684.47,677.325 696.47,676.659 708.5,676.5 Z"/></g>
<g><path style="opacity:1" fill="#5a5e5d" d="M 687.5,399.5 C 688.497,420.994 688.831,442.66 688.5,464.5C 699.679,464.172 710.679,464.505 721.5,465.5C 710.167,465.5 698.833,465.5 687.5,465.5C 687.5,443.5 687.5,421.5 687.5,399.5 Z"/></g>
<g><path style="opacity:1" fill="#a5a8a7" d="M 719.5,471.5 C 709.167,471.5 698.833,471.5 688.5,471.5C 688.5,488.167 688.5,504.833 688.5,521.5C 687.503,504.675 687.17,487.675 687.5,470.5C 698.346,470.172 709.013,470.506 719.5,471.5 Z"/></g>
<g><path style="opacity:1" fill="#808685" d="M 341.5,470.5 C 341.5,472.5 341.5,474.5 341.5,476.5C 340.167,476.5 338.833,476.5 337.5,476.5C 338.209,475.596 339.209,475.263 340.5,475.5C 340.216,473.585 340.549,471.919 341.5,470.5 Z"/></g>
<g><path style="opacity:1" fill="#f7f8f8" d="M 347.5,470.5 C 358.5,470.5 369.5,470.5 380.5,470.5C 380.219,500.508 379.552,530.508 378.5,560.5C 368.5,556.5 358.5,552.5 348.5,548.5C 347.548,546.955 347.215,545.288 347.5,543.5C 351.182,543.665 354.848,543.499 358.5,543C 359.931,542.535 361.097,541.701 362,540.5C 362.667,520.167 362.667,499.833 362,479.5C 361.097,478.299 359.931,477.465 358.5,477C 354.848,476.501 351.182,476.335 347.5,476.5C 347.5,474.5 347.5,472.5 347.5,470.5 Z"/></g>
<g><path style="opacity:1" fill="#fbfcfc" d="M 719.5,471.5 C 720.451,472.919 720.784,474.585 720.5,476.5C 716.154,476.334 711.821,476.501 707.5,477C 707,477.5 706.5,478 706,478.5C 704.87,488.597 704.37,498.764 704.5,509C 704.382,519.556 704.882,530.056 706,540.5C 706.903,541.701 708.069,542.535 709.5,543C 713.152,543.499 716.818,543.665 720.5,543.5C 720.739,545.467 720.406,547.301 719.5,549C 709.461,552.735 699.461,556.569 689.5,560.5C 688.501,547.517 688.168,534.517 688.5,521.5C 688.5,504.833 688.5,488.167 688.5,471.5C 698.833,471.5 709.167,471.5 719.5,471.5 Z"/></g>
<g><path style="opacity:1" fill="#949a9a" d="M 726.5,471.5 C 727.434,472.568 727.768,473.901 727.5,475.5C 728.791,475.263 729.791,475.596 730.5,476.5C 729.167,476.5 727.833,476.5 726.5,476.5C 726.5,474.833 726.5,473.167 726.5,471.5 Z"/></g>
<g><path style="opacity:1" fill="#080e0e" d="M 417.5,462.5 C 495.558,462.009 573.558,462.509 651.5,464C 655.058,465.892 657.558,468.725 659,472.5C 662.963,498.765 665.963,525.098 668,551.5C 666.262,552.127 664.429,552.46 662.5,552.5C 618.063,549.226 573.563,547.893 529,548.5C 485.798,548.159 442.632,549.159 399.5,551.5C 401.969,527.172 404.469,502.838 407,478.5C 408.007,471.362 411.507,466.029 417.5,462.5 Z"/></g>
<g><path style="opacity:1" fill="#fcfcfc" d="M 422.5,470.5 C 496.834,470.333 571.167,470.5 645.5,471C 647.667,471.833 649.167,473.333 650,475.5C 652.319,497.201 654.819,518.868 657.5,540.5C 575.164,536.536 492.83,536.536 410.5,540.5C 412.336,519.813 414.502,499.146 417,478.5C 417.625,474.891 419.458,472.224 422.5,470.5 Z"/></g>
<g><path style="opacity:1" fill="#1293ca" d="M 801.5,474.5 C 803.505,483.506 806.005,492.506 809,501.5C 811.264,504.433 814.098,506.6 817.5,508C 823.892,509.847 830.225,511.847 836.5,514C 830.516,515.663 824.516,517.33 818.5,519C 815.073,520.796 811.906,522.963 809,525.5C 805.874,535.467 802.874,545.467 800,555.5C 799.389,548.776 798.389,542.109 797,535.5C 795.508,526.989 790.675,521.489 782.5,519C 776.199,517.508 769.865,516.175 763.5,515C 769.919,512.082 776.585,509.749 783.5,508C 786.912,506.545 790.079,504.712 793,502.5C 795.523,493.034 798.356,483.7 801.5,474.5 Z"/></g>
<g><path style="opacity:1" fill="#6a7170" d="M 335.5,542.5 C 337.833,542.5 340.167,542.5 342.5,542.5C 342.167,545.167 341.833,547.833 341.5,550.5C 340.193,548.777 340.193,546.943 341.5,545C 339.389,544.155 337.389,543.322 335.5,542.5 Z"/></g>
<g><path style="opacity:1" fill="#fdfefe" d="M 440.5,589.5 C 502.501,589.333 564.501,589.5 626.5,590C 628.915,591.465 629.915,593.632 629.5,596.5C 565.5,596.5 501.5,596.5 437.5,596.5C 437.688,593.794 438.688,591.461 440.5,589.5 Z"/></g>
<g><path style="opacity:1" fill="#1493c9" d="M 269.5,581.5 C 270.117,581.611 270.617,581.944 271,582.5C 272.822,588.121 274.489,593.788 276,599.5C 277.819,604.336 281.319,607.169 286.5,608C 291.151,608.899 295.818,609.732 300.5,610.5C 295.468,613.181 290.135,615.014 284.5,616C 281.438,617.061 278.938,618.894 277,621.5C 273.906,628.875 271.906,636.542 271,644.5C 268.366,638.044 266.366,631.377 265,624.5C 264,622.833 263,621.167 262,619.5C 254.873,616.543 247.707,613.71 240.5,611C 246.905,609.301 253.238,607.301 259.5,605C 260.667,603.833 261.833,602.667 263,601.5C 265.355,594.883 267.522,588.216 269.5,581.5 Z"/></g>
<g><path style="opacity:1" fill="#c2c6c6" d="M 629.5,612.5 C 565.833,612.5 502.167,612.5 438.5,612.5C 438.5,614.5 438.5,616.5 438.5,618.5C 502.167,618.5 565.833,618.5 629.5,618.5C 565.669,619.499 501.669,619.832 437.5,619.5C 437.5,616.833 437.5,614.167 437.5,611.5C 501.669,611.168 565.669,611.501 629.5,612.5 Z"/></g>
<g><path style="opacity:1" fill="#fefefe" d="M 629.5,612.5 C 629.5,614.5 629.5,616.5 629.5,618.5C 565.833,618.5 502.167,618.5 438.5,618.5C 438.5,616.5 438.5,614.5 438.5,612.5C 502.167,612.5 565.833,612.5 629.5,612.5 Z"/></g>
<g><path style="opacity:1" fill="#5baccf" d="M 142.5,575.5 C 142.3,591.517 142.634,607.517 143.5,623.5C 142.169,615.862 141.502,607.862 141.5,599.5C 141.5,591.326 141.834,583.326 142.5,575.5 Z"/></g>
<g><path style="opacity:1" fill="#fafbfb" d="M 438.5,633.5 C 502.167,633.5 565.833,633.5 629.5,633.5C 629.5,636.167 629.5,638.833 629.5,641.5C 565.833,641.5 502.167,641.5 438.5,641.5C 438.5,638.833 438.5,636.167 438.5,633.5 Z"/></g>
<g><path style="opacity:1" fill="#fbfbfb" d="M 360.5,644.5 C 373.266,644.039 385.933,644.539 398.5,646C 400.768,647.558 401.934,649.724 402,652.5C 403.012,658.35 402.512,664.016 400.5,669.5C 386.757,671.003 373.09,670.669 359.5,668.5C 358.808,667.975 358.308,667.308 358,666.5C 357.333,660.5 357.333,654.5 358,648.5C 358.662,647.016 359.496,645.683 360.5,644.5 Z"/></g>
<g><path style="opacity:1" fill="#fafbfb" d="M 670.5,644.5 C 682.884,644.187 695.217,644.52 707.5,645.5C 708.806,646.912 709.64,648.579 710,650.5C 710.667,655.833 710.667,661.167 710,666.5C 707.772,668.968 704.938,670.135 701.5,670C 692.657,670.342 683.823,670.842 675,671.5C 670.972,672.222 667.972,670.889 666,667.5C 665.333,661.833 665.333,656.167 666,650.5C 666.979,648.032 668.479,646.032 670.5,644.5 Z"/></g>
<g><path style="opacity:1" fill="#fdfefe" d="M 438.5,656.5 C 502.167,656.5 565.833,656.5 629.5,656.5C 629.5,658.833 629.5,661.167 629.5,663.5C 565.833,663.5 502.167,663.5 438.5,663.5C 438.5,661.167 438.5,658.833 438.5,656.5 Z"/></g>
<g><path style="opacity:1" fill="#babebd" d="M 438.5,656.5 C 438.5,658.833 438.5,661.167 438.5,663.5C 502.167,663.5 565.833,663.5 629.5,663.5C 565.669,664.499 501.669,664.832 437.5,664.5C 437.194,661.615 437.527,658.948 438.5,656.5 Z"/></g>
<g><path style="opacity:1" fill="#1693c8" d="M 792.5,650.5 C 794.91,657.382 797.577,664.382 800.5,671.5C 806.589,674.542 812.922,677.042 819.5,679C 811.695,679.707 804.861,682.54 799,687.5C 797.002,694.155 795.002,700.822 793,707.5C 791.781,700.269 789.614,693.269 786.5,686.5C 785.5,685.667 784.5,684.833 783.5,684C 777.535,682.122 771.535,680.455 765.5,679C 773.182,677.331 780.349,674.498 787,670.5C 789.366,663.955 791.199,657.288 792.5,650.5 Z"/></g>
<g><path style="opacity:1" fill="#b4b8b9" d="M 708.5,676.5 C 711.287,675.523 714.287,675.19 717.5,675.5C 717.795,677.735 717.461,679.735 716.5,681.5C 716.714,679.856 716.38,678.356 715.5,677C 713.19,676.503 710.857,676.337 708.5,676.5 Z"/></g>
<g><path style="opacity:1" fill="#f0f1f1" d="M 438.5,678.5 C 502.167,678.5 565.833,678.5 629.5,678.5C 629.768,681.119 629.435,683.619 628.5,686C 565.168,686.5 501.834,686.667 438.5,686.5C 438.5,683.833 438.5,681.167 438.5,678.5 Z"/></g>
<g><path style="opacity:1" fill="#fbfbfb" d="M 351.5,702.5 C 472.834,702.333 594.167,702.5 715.5,703C 718.573,703.739 720.74,705.572 722,708.5C 722.667,720.167 722.667,731.833 722,743.5C 720.196,747.635 717.029,749.802 712.5,750C 592.167,750.667 471.833,750.667 351.5,750C 348.272,748.437 346.105,745.937 345,742.5C 344.333,731.833 344.333,721.167 345,710.5C 345.583,706.428 347.75,703.761 351.5,702.5 Z"/></g>
<g><path style="opacity:1" fill="#020908" d="M 488.5,714.5 C 518.502,714.333 548.502,714.5 578.5,715C 579.641,720.75 579.807,726.584 579,732.5C 577.933,733.191 576.766,733.691 575.5,734C 546.505,733.892 517.505,733.559 488.5,733C 487.186,726.834 487.186,720.667 488.5,714.5 Z"/></g>
<g><path style="opacity:1" fill="#a1a3a2" d="M 464.5,768.5 C 454.5,768.5 444.5,768.5 434.5,768.5C 434.81,771.713 434.477,774.713 433.5,777.5C 433.5,774.167 433.5,770.833 433.5,767.5C 444.014,767.172 454.347,767.506 464.5,768.5 Z"/></g>
<g><path style="opacity:1" fill="#0c92ca" d="M 562.5,1082.5 C 554.461,1083.5 546.794,1085.5 539.5,1088.5C 508.396,1094.97 477.063,1100.31 445.5,1104.5C 444.167,1104.17 442.833,1103.83 441.5,1103.5C 445.935,1101.19 450.602,1099.35 455.5,1098C 481.805,1091.43 507.805,1084.26 533.5,1076.5C 541.324,1074.91 548.657,1072.24 555.5,1068.5C 646.011,1038.14 724.178,988.469 790,919.5C 859.853,848.502 907.519,764.502 933,667.5C 945.226,613.908 944.226,560.575 930,507.5C 926.272,496.309 921.772,485.475 916.5,475C 917.254,471.912 918.42,471.746 920,474.5C 957.209,526.152 972.542,583.819 966,647.5C 955.785,716.157 931.785,779.491 894,837.5C 812.11,957.514 701.61,1039.18 562.5,1082.5 Z"/></g>
<g><path style="opacity:1" fill="#1493c9" d="M 174.5,810.5 C 175.586,810.62 176.253,811.287 176.5,812.5C 177.92,821.184 180.42,829.517 184,837.5C 186.408,839.956 189.241,841.789 192.5,843C 198.905,844.802 205.239,846.802 211.5,849C 205.07,850.191 198.736,851.858 192.5,854C 188.726,855.302 185.559,857.469 183,860.5C 180.005,870.476 177.005,880.476 174,890.5C 173.752,879.992 171.419,869.992 167,860.5C 164.441,857.469 161.274,855.302 157.5,854C 151.055,852.473 144.721,850.806 138.5,849C 145.363,846.268 152.363,843.934 159.5,842C 162.562,840.939 165.062,839.106 167,836.5C 169.312,827.766 171.812,819.099 174.5,810.5 Z"/></g>
<g><path style="opacity:1" fill="#1793c9" d="M 508.5,848.5 C 510.007,854.479 511.841,860.479 514,866.5C 519.276,869.196 524.776,871.363 530.5,873C 523.923,873.926 518.089,876.426 513,880.5C 511.332,886.178 509.665,891.845 508,897.5C 506.713,891.402 505.047,885.402 503,879.5C 497.447,876.538 491.613,874.372 485.5,873C 489.363,871.268 493.363,869.934 497.5,869C 499.587,868.208 501.421,867.041 503,865.5C 504.623,859.734 506.457,854.068 508.5,848.5 Z"/></g>
<g><path style="opacity:1" fill="#1d93c7" d="M 262.5,921.5 C 264.053,926.034 265.553,930.701 267,935.5C 271.253,937.918 275.753,939.752 280.5,941C 274.927,941.751 270.094,943.918 266,947.5C 264.978,952.256 263.644,956.923 262,961.5C 261.214,956.78 260.214,952.114 259,947.5C 257.786,945.951 256.286,944.785 254.5,944C 250.789,943.156 247.123,942.156 243.5,941C 248.439,939.392 253.273,937.559 258,935.5C 259.441,930.775 260.941,926.108 262.5,921.5 Z"/></g>
<g><path style="opacity:1" fill="#1894c8" d="M 387.5,999.5 C 389.334,1006.13 391.501,1012.8 394,1019.5C 395.214,1021.05 396.714,1022.22 398.5,1023C 403.66,1024.55 408.66,1026.38 413.5,1028.5C 408.402,1029.69 403.402,1031.19 398.5,1033C 396.376,1034.12 394.543,1035.62 393,1037.5C 391.354,1043.57 389.52,1049.57 387.5,1055.5C 385.896,1050.23 384.396,1044.9 383,1039.5C 381.035,1035.54 377.869,1033.04 373.5,1032C 369.167,1031 364.833,1030 360.5,1029C 367.431,1026.36 374.265,1023.52 381,1020.5C 383.322,1013.54 385.489,1006.54 387.5,999.5 Z"/></g>
<g><path style="opacity:1" fill="#151716" d="M 562.5,1082.5 C 582.998,1113.77 611.998,1131.94 649.5,1137C 724.499,1137.5 799.499,1137.67 874.5,1137.5C 882.745,1113.87 899.411,1103.7 924.5,1107C 949.068,1114.96 959.901,1131.8 957,1157.5C 947.97,1184.44 929.47,1194.94 901.5,1189C 888.066,1183.9 879.066,1174.57 874.5,1161C 800.167,1160.67 725.833,1160.33 651.5,1160C 601.841,1155.03 564.507,1131.2 539.5,1088.5C 546.794,1085.5 554.461,1083.5 562.5,1082.5 Z"/></g>
</svg>
